<?xml version="1.0" encoding="utf-8"?>
<!-- Generator: Adobe Illustrator 23.0.5, SVG Export Plug-In . SVG Version: 6.00 Build 0)  -->
<svg version="1.1" xmlns="http://www.w3.org/2000/svg" xmlns:xlink="http://www.w3.org/1999/xlink" x="0px" y="0px"
	 viewBox="0 0 1920 1080" style="enable-background:new 0 0 1920 1080;" xml:space="preserve">
<style type="text/css">
	.st0{fill:#54268C;}
	.st1{opacity:0.46;fill:#54268C;}
	.st2{opacity:0.85;fill:#54268C;}
	.st3{opacity:0.56;fill:#54268C;}
	.st4{opacity:0.61;fill:#54268C;}
</style>
<g id="Layer_1">
</g>
<g id="Layer_2">
	<g>
		<circle class="st0" cx="1860" cy="525" r="424"/>
	</g>
	<circle class="st1" cx="1062" cy="39" r="169"/>
	<circle class="st2" cx="1102.5" cy="769.5" r="74.5"/>
	<circle class="st3" cx="285.5" cy="175.5" r="74.5"/>
	<path class="st4" d="M298.3,1031.83c-20.92,1.78-28.7,30.59-29.5,33.71c-4.09,16-1.87,38.5,13.24,51.88
		c13.59,12.04,35.34,14.69,47.56,3.3c8.07-7.52,13.5-22.59,8.43-29.74c-3.34-4.72-10.62-5.1-14.91-4.33
		c-1.75,0.32-7.17,1.57-10.98,6.64c-4.34,5.79-5.25,14.76-3.61,15.53c3.49,1.65,28.71-29.15,21.37-53.54
		C325.91,1042.02,312.26,1030.64,298.3,1031.83z"/>
</g>
</svg>
